<?xml version="1.0" encoding="utf-8"?>
<svg version="1.1" xmlns="http://www.w3.org/2000/svg" xmlns:xlink="http://www.w3.org/1999/xlink" x="0px" y="0px"
	 viewBox="0 0 1274.3 494.5" style="enable-background:new 0 0 1274.3 494.5;" xml:space="preserve">
<path fill="#ffffff" d="M461.1,378.5c4.7-2.7,9.1-5.1,13.4-7.5c7.5-4.2,15.1-8.4,22.6-12.8c3.2-1.9,5.1-1.4,7.3,1.9c25.5,37.5,59.4,64.5,102.7,78.5
	c33.1,10.7,66.9,12.2,100.9,3.6c23.4-5.9,44.1-16.5,60.9-34.2c13.8-14.6,22.5-31.7,22.7-51.8c0.3-24.7-9.9-44.4-31.4-57.6
	c-18.3-11.3-38.5-18.1-59.3-22.9c-27.7-6.3-55.6-11.9-83.3-18.2c-26-5.9-51.8-12.5-75.6-24.8c-21.5-11.1-39.5-25.9-50.3-48.1
	c-8.5-17.3-11.2-35.8-10.2-54.9c1.8-31.3,12.4-59.2,34.4-81.9C528.6,34.6,544,24.8,561,17.5c26.5-11.4,54.4-15.7,83-17.2
	c23.2-1.2,45.6,1.9,67.7,8.1c28.6,8.1,53.9,22.4,76.1,42.2c12.2,10.9,23.1,23,32.3,36.6c2.4,3.5,2.6,5.4-1.6,7.7
	c-10.8,5.8-21.5,12-32.1,18.3c-2.7,1.6-4,1.2-5.7-1.2C769,95.1,754.3,81.2,737,70.1c-22.7-14.6-47.6-22.3-74.7-23.5
	c-22.3-1-44.3,0.8-65.7,7.1c-25.1,7.4-47.5,19.3-59.8,43.8c-10.8,21.3-13.8,43.8-3.7,66.4c6,13.6,18,21.5,30.8,28
	c17.2,8.8,35.6,14,54.2,18.2c31.8,7.2,63.8,13.4,95.5,20.9c26.9,6.4,53.1,15.4,76,31.5c24.7,17.3,40.7,40.3,45.8,70.4
	c6.9,40.8-4.9,75.9-32.5,106.2c-17.4,19.1-38.7,32.3-62.7,41.3c-15.8,5.9-32.2,9.1-48.8,11.8c-15,2.4-30,2.9-44.8,1.3
	c-28-3.1-55.3-9.3-81.1-21.5c-42.1-20-75.7-49.6-101.5-88.3C463.3,382.3,462.5,380.9,461.1,378.5z"/>
<path fill="#ffffff" d="M348.6,114.9c5.1,0,6.4,1.4,6.4,6.5c-0.2,62.3,0.9,124.7-0.5,187c-1.1,50.3-16.7,96.2-51.8,133.8
	c-17.5,18.8-38.8,32.1-63.2,40.5c-27.6,9.5-56,13.7-85,11c-38.8-3.7-74.9-15-105-41.3c-23.4-20.5-39.5-45.6-49.1-75
	c-1.1-3.3-0.9-5.3,3.6-6.2c11.9-2.3,23.7-5.2,35.5-8c3.3-0.8,4.9-0.6,6.1,3.2c5.8,17.3,15.3,32.5,28.1,45.5
	c14.3,14.4,31.7,24.2,51.2,29.8c15.9,4.6,32.3,6.7,48.9,6c40.3-1.8,76-14.3,103-45.9c14-16.4,22.3-35.7,27.1-56.6
	c3.8-16.3,4.8-32.9,4.7-49.6c-0.2-42.3-0.1-84.7-0.1-127c0-7.3,0-7.3-7.5-7.3c-61,0-122,0-183,0.1c-3.9,0-4.9-1.3-4.8-4.9
	c0.1-12.2,0.2-24.3,0-36.5c-0.1-4.3,1.6-4.9,5.3-4.9C157.1,115.1,310.5,115.1,348.6,114.9z"/>
<path fill="#ffffff" d="M1272.3,436.8h-318c-1.1,0-2,0.9-2,2v42c0,1.1,0.9,2,2,2h318c1.1,0,2-0.9,2-2v-42C1274.3,437.7,1273.4,436.8,1272.3,436.8z"
	/>
<path fill="#ffffff" d="M1272.3,275.8h-318c-1.1,0-2,0.9-2,2v42c0,1.1,0.9,2,2,2h318c1.1,0,2-0.9,2-2v-42C1274.3,276.7,1273.4,275.8,1272.3,275.8z"
	/>
<path fill="#ffffff" d="M1272.3,172.1h-318c-1.1,0-2,0.9-2,2v42c0,1.1,0.9,2,2,2h318c1.1,0,2-0.9,2-2v-42C1274.3,173,1273.4,172.1,1272.3,172.1z"/>
<path fill="#ffffff" d="M1272.3,11.9h-318c-1.1,0-2,0.9-2,2v42c0,1.1,0.9,2,2,2h318c1.1,0,2-0.9,2-2v-42C1274.3,12.8,1273.4,11.9,1272.3,11.9z"/>
<path fill="#ffffff" d="M353.3,11.9H115.3c-1.1,0-2,0.9-2,2v42c0,1.1,0.9,2,2,2h237.9c1.1,0,2-0.9,2-2v-42C355.3,12.8,354.4,11.9,353.3,11.9z"/>
</svg>
